<?xml version="1.0" encoding="UTF-8" standalone="no"?>
<svg
   xmlns:dc="http://purl.org/dc/elements/1.1/"
   xmlns:cc="http://creativecommons.org/ns#"
   xmlns:rdf="http://www.w3.org/1999/02/22-rdf-syntax-ns#"
   xmlns:svg="http://www.w3.org/2000/svg"
   xmlns="http://www.w3.org/2000/svg"
   xmlns:xlink="http://www.w3.org/1999/xlink"
   xmlns:sodipodi="http://sodipodi.sourceforge.net/DTD/sodipodi-0.dtd"
   xmlns:inkscape="http://www.inkscape.org/namespaces/inkscape"
   viewBox="0 0 600 60"
   height="60"
   width="600"
   id="svg4225"
   version="1.1"
   inkscape:version="0.91 r13725"
   sodipodi:docname="spritesheet.svg"
   inkscape:export-filename="/home/fpuga/development/upstream/icarto.Leaflet.draw/src/images/spritesheet-2x.png"
   inkscape:export-xdpi="90"
   inkscape:export-ydpi="90">
  <metadata
     id="metadata4258">
    <rdf:RDF>
      <cc:Work
         rdf:about="">
        <dc:format>image/svg+xml</dc:format>
        <dc:type
           rdf:resource="http://purl.org/dc/dcmitype/StillImage" />
        <dc:title />
      </cc:Work>
    </rdf:RDF>
  </metadata>
  <defs
     id="defs4256" />
  <sodipodi:namedview
     pagecolor="#ffffff"
     bordercolor="#666666"
     borderopacity="1"
     objecttolerance="10"
     gridtolerance="10"
     guidetolerance="10"
     inkscape:pageopacity="0"
     inkscape:pageshadow="2"
     inkscape:window-width="1920"
     inkscape:window-height="1056"
     id="namedview4254"
     showgrid="false"
     inkscape:zoom="1.3101852"
     inkscape:cx="237.56928"
     inkscape:cy="7.2419621"
     inkscape:window-x="1920"
     inkscape:window-y="24"
     inkscape:window-maximized="1"
     inkscape:current-layer="svg4225" />
  <g
     id="enabled"
     style="fill:#464646;fill-opacity:1">
    <g
       id="polyline"
       style="fill:#464646;fill-opacity:1">
      <path
         d="m 18,36 0,6 6,0 0,-6 -6,0 z m 4,4 -2,0 0,-2 2,0 0,2 z"
         id="path4229"
         inkscape:connector-curvature="0"
         style="fill:#464646;fill-opacity:1" />
      <path
         d="m 36,18 0,6 6,0 0,-6 -6,0 z m 4,4 -2,0 0,-2 2,0 0,2 z"
         id="path4231"
         inkscape:connector-curvature="0"
         style="fill:#464646;fill-opacity:1" />
      <path
         d="m 23.142,39.145 -2.285,-2.29 16,-15.998 2.285,2.285 z"
         id="path4233"
         inkscape:connector-curvature="0"
         style="fill:#464646;fill-opacity:1" />
    </g>
    <path
       id="polygon"
       d="M 100,24.565 97.904,39.395 83.07,42 76,28.773 86.463,18 Z"
       inkscape:connector-curvature="0"
       style="fill:#464646;fill-opacity:1" />
    <path stroke="null" id="rectangle" d="m166.715523,13.773948c-2.484784,-2.015089 -5.94403,-1.368481 -7.725238,1.447781l-13.970042,22.096314c-1.271666,2.009676 -0.863775,4.809466 0.912625,6.250365c1.776394,1.43821 4.245462,0.976093 5.517129,-1.036233l9.863951,-15.599924l-1.285832,-1.044469l-9.862448,15.601265l0,0c-0.763899,1.204436 -2.246127,1.483303 -3.309023,0.622074c-1.064366,-0.862665 -1.308146,-2.542785 -0.545759,-3.749964l0,0l13.968233,-22.094972l0.001799,-0.001402l-0.003005,-0.001341c1.270163,-2.005523 3.747068,-2.468962 5.518629,-1.032156c1.77157,1.438166 2.181295,4.244847 0.912928,6.251706l0,-0.001334l-15.31169,24.21805l0.001503,0.00275c-1.777873,2.810762 -5.244989,3.460127 -7.726741,1.447777c-2.481727,-2.01649 -3.052849,-5.94006 -1.276476,-8.753574l11.12777,-17.599943l-1.286129,-1.04306l-11.127444,17.599946c-2.288983,3.620103 -1.553445,8.655065 1.643342,11.24709c3.19677,2.594762 7.641353,1.760839 9.930336,-1.857862l15.311341,-24.21947c1.776418,-2.81485 1.206805,-6.731588 -1.27976,-8.749414l0,0.000001z" fill-opacity="null" stroke-opacity="null" stroke-width="null" fill="#464646"/>
    <path
       id="circle"
       d="m 221,30 c 0,6.078 -4.926,11 -11,11 -6.074,0 -11,-4.922 -11,-11 0,-6.074 4.926,-11 11,-11 6.074,0 11,4.926 11,11 z"
       inkscape:connector-curvature="0"
       style="fill:#464646;fill-opacity:1" />
    <path stroke="null" id="marker" d="m269.822811,25.120878c-0.066467,-0.099984 -0.148932,-0.197981 -0.254077,-0.27316c-0.44989,-0.327821 -1.084767,-0.227831 -1.414596,0.224621c-0.329268,0.453527 -0.225192,1.087426 0.225732,1.416169c0.409716,0.296885 0.956464,0.225701 1.305335,-0.123571l-9.572823,13.196564l-2.976055,10.802439l9.344035,-6.182958l21.279627,-29.334919l-6.37055,-4.62041l-2.053588,2.831257c-0.11748,-0.470983 -0.379797,-0.91318 -0.804936,-1.224464c-0.986379,-0.715202 -2.36538,-0.49885 -3.080144,0.48951c-4.095872,5.650264 -1.825297,7.154931 -5.627962,12.798922l0.000001,0zm-4.686447,17.662479l-4.806505,3.180663l1.530542,-5.561452l3.275964,2.380789l-0.000001,0zm5.661988,-17.950023c2.948716,-4.356602 2.667847,-5.53789 5.191437,-9.40482c0.417451,0.28648 0.8967,0.387537 1.367181,0.362732l-6.558618,9.042089l0,-0.000001z" fill-opacity="null" stroke-opacity="null" stroke-width="1.5" fill="#464646"/>
    <path id="edit" d="m334.22313,35.726855l-1.047897,-3.667638c0.307096,-0.269382 0.595335,-0.557621 0.867411,-0.866064l3.664944,1.047897c0.386563,-0.563009 0.71925,-1.161037 1.016918,-1.781963l-2.727494,-2.639945c0.13065,-0.38791 0.243791,-0.782555 0.324606,-1.189322l3.67572,-0.921287c0.026938,-0.339422 0.05253,-0.68019 0.05253,-1.027693s-0.026938,-0.686925 -0.05253,-1.026346l-3.67572,-0.921287c-0.082162,-0.406767 -0.195302,-0.801412 -0.324606,-1.189322l2.728841,-2.639945c-0.299014,-0.619579 -0.631701,-1.218954 -1.018265,-1.781963l-3.664944,1.04655c-0.270729,-0.307096 -0.560315,-0.595335 -0.867411,-0.866064l1.047897,-3.666291c-0.563009,-0.385216 -1.162384,-0.71925 -1.78331,-1.016918l-2.639945,2.728841c-0.386563,-0.13065 -0.782555,-0.242444 -1.189322,-0.324606l-0.91994,-3.677067c-0.340768,-0.025591 -0.68019,-0.05253 -1.027693,-0.05253s-0.686925,0.026938 -1.026346,0.05253l-0.921287,3.677067c-0.406767,0.082162 -0.801412,0.193955 -1.189322,0.324606l-2.639945,-2.728841c-0.619579,0.301708 -1.217607,0.634395 -1.780616,1.020958l1.047897,3.666291c-0.307096,0.269382 -0.596681,0.558968 -0.866064,0.864717l-3.666291,-1.047897c-0.386563,0.563009 -0.71925,1.162384 -1.016918,1.78331l2.728841,2.639945c-0.129303,0.38791 -0.242444,0.782555 -0.324606,1.189322l-3.677067,0.921287c-0.025591,0.339422 -0.05253,0.68019 -0.05253,1.026346s0.026938,0.686925 0.05253,1.027693l3.677067,0.921287c0.082162,0.406767 0.195302,0.801412 0.324606,1.189322l-2.728841,2.639945c0.297667,0.619579 0.630354,1.218954 1.016918,1.781963l3.666291,-1.047897c0.269382,0.308443 0.558968,0.595335 0.866064,0.866064l-1.047897,3.667638c0.563009,0.385216 1.162384,0.717903 1.781963,1.016918l2.639945,-2.728841c0.38791,0.13065 0.782555,0.243791 1.189322,0.324606l0.921287,3.67572c0.339422,0.026938 0.68019,0.05253 1.027693,0.05253s0.686925,-0.026938 1.027693,-0.05253l0.91994,-3.67572c0.406767,-0.082162 0.802759,-0.195302 1.189322,-0.324606l2.639945,2.728841c0.618232,-0.301708 1.217607,-0.634395 1.780616,-1.019611zm-7.558864,-6.466519c-2.528152,0 -4.57815,-2.049998 -4.57815,-4.57815s2.049998,-4.576803 4.57815,-4.576803s4.576803,2.048651 4.576803,4.576803s-2.048651,4.57815 -4.576803,4.57815zm20.866342,9.569801c0.025591,-0.73676 -0.080815,-1.48699 -0.309789,-2.22779l1.675557,-2.388073c-0.253219,-0.471419 -0.538764,-0.918593 -0.86337,-1.32536l-2.858145,0.599375c-0.576478,-0.490276 -1.232423,-0.872798 -1.934164,-1.146221l-0.822963,-2.800228c-0.519908,-0.09159 -1.04655,-0.141426 -1.579926,-0.142773l-1.311891,2.607619c-0.375788,0.072733 -0.751576,0.172405 -1.12063,0.31383c-0.346156,0.131997 -0.669415,0.29632 -0.979204,0.47546l-2.701903,-1.10312c-0.400033,0.352891 -0.765045,0.734066 -1.095038,1.147568l1.221648,2.65072c-0.34885,0.666721 -0.5886,1.384624 -0.699047,2.134854l-2.547008,1.427725c0.025591,0.522601 0.102365,1.045203 0.220893,1.569151l2.8339,0.699047c0.311136,0.705781 0.728679,1.337482 1.23377,1.876247l-0.474113,2.879695c0.431011,0.309789 0.888961,0.576478 1.364421,0.808146l2.309952,-1.777922c0.721944,0.189914 1.477561,0.262648 2.238566,0.202037l1.955715,2.164486c0.269382,-0.076774 0.537417,-0.158935 0.802759,-0.259954c0.235709,-0.088896 0.45795,-0.193955 0.68019,-0.300361l0.049836,-2.916062c0.612844,-0.456603 1.135446,-1.006142 1.551641,-1.624374l2.910674,-0.180486c0.20473,-0.483541 0.375788,-0.985939 0.495663,-1.501806l-2.247994,-1.861431zm-5.60719,2.70325c-1.61764,0.616885 -3.427888,-0.193955 -4.04612,-1.811595s0.192608,-3.429235 1.810248,-4.047467c1.61764,-0.616885 3.430582,0.193955 4.048814,1.811595c0.616885,1.61764 -0.195302,3.429235 -1.812942,4.047467z" stroke-width="1.5" fill="#464646"/>
    <g
       id="remove"
       style="fill:#464646;fill-opacity:1">
      <path
         d="m 381,42 18,0 0,-18 -18,0 0,18 z m 14,-16 2,0 0,14 -2,0 0,-14 z m -4,0 2,0 0,14 -2,0 0,-14 z m -4,0 2,0 0,14 -2,0 0,-14 z m -4,0 2,0 0,14 -2,0 0,-14 z"
         id="path4247"
         inkscape:connector-curvature="0"
         style="fill:#464646;fill-opacity:1" />
      <path
         d="m 395,20 0,-4 -10,0 0,4 -6,0 0,2 22,0 0,-2 -6,0 z m -2,0 -6,0 0,-2 6,0 0,2 z"
         id="path4249"
         inkscape:connector-curvature="0"
         style="fill:#464646;fill-opacity:1" />
    </g>
  </g>
  <g
     id="disabled"
     transform="translate(120,0)"
     style="fill:#bbbbbb">
    <use
       xlink:href="#edit"
       id="edit-disabled"
       x="0"
       y="0"
       width="100%"
       height="100%" />
    <use
       xlink:href="#remove"
       id="remove-disabled"
       x="0"
       y="0"
       width="100%"
       height="100%" />
  </g>
  <path
     style="fill:none;stroke:#464646;stroke-width:2;stroke-miterlimit:4;stroke-dasharray:none;stroke-opacity:1"
     id="circle-3"
     d="m 581.65725,30 c 0,6.078 -4.926,11 -11,11 -6.074,0 -11,-4.922 -11,-11 0,-6.074 4.926,-11 11,-11 6.074,0 11,4.926 11,11 z"
     inkscape:connector-curvature="0" />
</svg>
