<?xml version="1.0" standalone="no"?><!DOCTYPE svg PUBLIC "-//W3C//DTD SVG 1.1//EN" "http://www.w3.org/Graphics/SVG/1.1/DTD/svg11.dtd"><svg t="1572423838630" class="icon" viewBox="0 0 1129 1024" version="1.1" xmlns="http://www.w3.org/2000/svg" p-id="5089" xmlns:xlink="http://www.w3.org/1999/xlink" width="220.5078125" height="200"><defs><style type="text/css"></style></defs><path d="M751.58069 866.162759H422.135172a17.655172 17.655172 0 0 1-14.124138-7.062069 17.655172 17.655172 0 0 1-2.824827-15.536552l16.772414-57.37931a17.655172 17.655172 0 0 1 13.594482-12.358621l295.90069-57.202759a17.655172 17.655172 0 0 1 13.594483 2.824828 16.595862 16.595862 0 0 1 7.238621 11.828965l17.655172 114.582069a17.655172 17.655172 0 0 1-17.655172 20.303449z m-305.964138-35.310345h285.660689l-11.122758-76.093793-267.299311 51.729655z" fill="#0165C2" p-id="5090"></path><path d="M476.689655 801.368276h-2.648276a17.655172 17.655172 0 0 1-14.830345-20.126897 326.797241 326.797241 0 0 0-16.41931-94.984827 17.655172 17.655172 0 0 1 11.828966-22.422069 18.714483 18.714483 0 0 1 22.068965 12.711724l1.765517 5.296552v3.001379c7.415172 27.188966 19.067586 76.446897 15.183449 101.693793a17.655172 17.655172 0 0 1-16.948966 14.830345z" fill="#0165C2" p-id="5091"></path><path d="M385.05931 712.386207a167.194483 167.194483 0 0 1-22.951724-1.588966h-1.765517a61.263448 61.263448 0 0 1-44.137931-67.972413v-96.22069a17.655172 17.655172 0 0 1 17.655172-17.655172 17.655172 17.655172 0 0 1 17.655173 17.655172v99.398621a26.129655 26.129655 0 0 0 17.655172 30.72c68.325517 9.886897 152.893793-46.962759 153.776552-47.492414a17.655172 17.655172 0 1 1 19.773793 29.307586c-3.884138 1.588966-81.743448 53.848276-157.66069 53.848276z" fill="#0165C2" p-id="5092"></path><path d="M586.857931 780.182069a17.655172 17.655172 0 0 1-17.655172-17.655172V578.56l-123.586207-131.001379A17.655172 17.655172 0 0 1 471.393103 423.724138l128.882759 135.591724a17.655172 17.655172 0 0 1 4.766897 12.182069v191.028966a17.655172 17.655172 0 0 1-18.184828 17.655172zM574.852414 431.668966a17.655172 17.655172 0 0 1-12.182069-4.943449l-96.926897-93.21931a17.655172 17.655172 0 0 1-5.296551-12.711724v-86.333793l-40.783449-45.903449a17.655172 17.655172 0 0 1 26.482759-23.481379l45.02069 50.846897a17.655172 17.655172 0 0 1 4.590344 11.828965v85.627586l91.453793 88.275862a17.655172 17.655172 0 0 1 0 24.893794 17.655172 17.655172 0 0 1-12.35862 5.12z" fill="#0165C2" p-id="5093"></path><path d="M650.24 768a17.655172 17.655172 0 0 1-17.655172-17.655172V530.891034a17.655172 17.655172 0 0 1 4.766896-11.828965l36.89931-40.430345v-71.503448l-88.275862-85.627586a17.655172 17.655172 0 0 1 0-24.893793 17.655172 17.655172 0 0 1 25.070345 0l93.042759 90.747586a17.655172 17.655172 0 0 1 5.296552 12.535172v85.627586a17.655172 17.655172 0 0 1-4.590345 12.005518l-37.075862 40.253793v211.862069a17.655172 17.655172 0 0 1-17.478621 18.361379z" fill="#0165C2" p-id="5094"></path><path d="M715.74069 746.107586a17.655172 17.655172 0 0 1-17.655173-16.772414L688.551724 551.547586a17.655172 17.655172 0 0 1 3.531035-11.29931l27.012413-36.546207v-116.70069l-56.849655-66.736551a17.655172 17.655172 0 0 1-4.237241-11.299311v-102.576551a356.634483 356.634483 0 0 0-109.815173-23.128276c-70.62069-3.531034-136.297931 12.358621-179.376551 43.608276a114.582069 114.582069 0 0 0-46.786207 67.972413 196.502069 196.502069 0 0 0 1.05931 63.382069 221.748966 221.748966 0 0 1 0 78.565518c-4.06069 17.655172-8.651034 33.721379-13.241379 50.670344-2.295172 8.827586-4.766897 17.655172-7.062069 26.482759s-1.05931 11.475862 0 12.005517 7.944828 7.591724 48.375172-2.648276a17.655172 17.655172 0 0 1 21.362759 12.888276 17.655172 17.655172 0 0 1-12.711724 21.362759c-25.953103 6.532414-62.675862 12.888276-82.096552-6.708966a44.844138 44.844138 0 0 1-8.651034-45.903448c2.471724-9.004138 4.943448-17.655172 7.23862-26.835862 4.590345-16.41931 9.004138-32.838621 12.888276-49.434483a185.732414 185.732414 0 0 0 0-66.206896 226.33931 226.33931 0 0 1 0-74.857931 147.597241 147.597241 0 0 1 60.557242-89.335173c49.257931-35.310345 123.586207-54.201379 201.79862-50.140689a393.18069 393.18069 0 0 1 125.88138 27.365517 17.655172 17.655172 0 0 1 12.711724 5.473103 237.108966 237.108966 0 0 1 137.533793 150.245517c28.248276 100.811034-24.717241 190.852414-63.382069 256.706207a277.53931 277.53931 0 0 0-29.837242 140.182069 17.655172 17.655172 0 0 1-17.655172 17.655173z m9.004138-189.969655l1.235862 26.482759c2.118621-4.237241 4.413793-8.474483 6.885517-12.535173 45.903448-78.035862 82.096552-149.186207 59.674483-229.517241a195.972414 195.972414 0 0 0-98.692414-118.113104v79.624828l56.849655 66.56a17.655172 17.655172 0 0 1 4.237241 11.475862v129.05931a17.655172 17.655172 0 0 1-3.531034 10.416552z" fill="#0165C2" p-id="5095"></path><path d="M427.961379 464.507586a55.437241 55.437241 0 1 1 55.437242-55.437241 55.613793 55.613793 0 0 1-55.437242 55.437241z m0-75.564138a20.126897 20.126897 0 1 0 20.126897 20.126897A20.126897 20.126897 0 0 0 427.961379 388.413793zM574.852414 340.391724a55.437241 55.437241 0 1 1 55.613793-55.437241 55.437241 55.437241 0 0 1-55.613793 55.437241z m0-75.564138a20.126897 20.126897 0 1 0 20.303448 20.126897A20.303448 20.303448 0 0 0 574.852414 264.827586zM598.863448 502.289655a55.437241 55.437241 0 1 1 55.437242-55.437241 55.613793 55.613793 0 0 1-55.437242 55.437241z m0-75.564138a20.126897 20.126897 0 1 0 20.126897 20.126897 20.126897 20.126897 0 0 0-20.126897-20.126897z" fill="#0165C2" p-id="5096"></path></svg>