<?xml version="1.0" standalone="no"?><!DOCTYPE svg PUBLIC "-//W3C//DTD SVG 1.1//EN" "http://www.w3.org/Graphics/SVG/1.1/DTD/svg11.dtd"><svg t="1571723925455" class="icon" viewBox="0 0 1024 1024" version="1.1" xmlns="http://www.w3.org/2000/svg" p-id="13840" xmlns:xlink="http://www.w3.org/1999/xlink" width="200" height="200"><defs><style type="text/css"></style></defs><path d="M217.664 649.056c0 39.36-27.424 71.584-60.928 71.584s-60.96-32.192-60.96-71.584v-234.272c0-39.36 27.424-71.584 60.96-71.584s60.928 32.224 60.928 71.584v234.272z m710.56 0c0 39.36-27.424 71.584-60.96 71.584s-60.96-32.192-60.96-71.584v-234.272c0-39.36 27.424-71.584 60.96-71.584s60.96 32.224 60.96 71.584v234.272zM645.248 116.768l39.104-70.176c3.2-5.728 2.24-12.416-2.08-14.816s-10.528 0.288-13.696 6.016l-40 71.808a321.92 321.92 0 0 0-117.888-21.888c-42.56 0-82.816 8-118.72 22.24l-40.192-72.128c-3.2-5.728-9.376-8.448-13.696-6.016s-5.28 9.088-2.08 14.816l39.296 70.528c-81.76 38.4-136.832 110.496-136.832 193.12 0 8.384 0.608 16.672 1.696 24.832h541.088c1.12-8.16 1.696-16.416 1.696-24.832 0-82.88-55.424-155.168-137.632-193.472z m-258.144 122.496a23.808 23.808 0 1 1 0-47.616 23.808 23.808 0 0 1 0 47.616z m248.448 0a23.808 23.808 0 1 1 0-47.616 23.808 23.808 0 0 1 0 47.616zM238.4 358.752v399.072h0.224c2.784 33.696 33.792 60.48 71.36 60.48h401.312c37.536 0 68.544-26.784 71.36-60.48h0.224V358.752H238.432z m233.28 457.568v123.456c0 39.36-27.424 71.584-60.96 71.584s-60.928-32.224-60.928-71.584v-123.36z m203.136-0.064v123.52c0 39.36-27.424 71.584-60.96 71.584s-60.96-32.224-60.96-71.584v-123.52z" fill="#6AAB20" p-id="13841"></path></svg>