<?xml version="1.0" standalone="no"?><!DOCTYPE svg PUBLIC "-//W3C//DTD SVG 1.1//EN" "http://www.w3.org/Graphics/SVG/1.1/DTD/svg11.dtd"><svg t="1573543420698" class="icon" viewBox="0 0 1029 1024" version="1.1" xmlns="http://www.w3.org/2000/svg" p-id="2366" xmlns:xlink="http://www.w3.org/1999/xlink" width="200.9765625" height="200"><defs><style type="text/css"></style></defs><path d="M519.04 2.048c-280.8 0-509.216 228.448-509.216 509.216 0 280.8 228.416 509.216 509.216 509.216 280.832 0 509.248-228.448 509.248-509.216C1028.288 230.496 799.872 2.048 519.04 2.048zM519.04 939.456c-236.128 0-428.16-192.064-428.16-428.192 0-236.064 192.032-428.16 428.16-428.16S947.232 275.2 947.232 511.264C947.232 747.392 755.168 939.456 519.04 939.456z" p-id="2367"></path><path d="M692.448 574.464m-123.968 0a3.874 3.874 0 1 0 247.936 0 3.874 3.874 0 1 0-247.936 0Z" p-id="2368"></path><path d="M416.192 253.824m-92.064 0a2.877 2.877 0 1 0 184.128 0 2.877 2.877 0 1 0-184.128 0Z" p-id="2369"></path><path d="M317.248 561.824m-111.328 0a3.479 3.479 0 1 0 222.656 0 3.479 3.479 0 1 0-222.656 0Z" p-id="2370"></path><path d="M512.672 780.704m-46.912 0a1.466 1.466 0 1 0 93.824 0 1.466 1.466 0 1 0-93.824 0Z" p-id="2371"></path><path d="M711.936 318.784m-50.656 0a1.583 1.583 0 1 0 101.312 0 1.583 1.583 0 1 0-101.312 0Z" p-id="2372"></path><path d="M527.52 446.368m-42.912 0a1.341 1.341 0 1 0 85.824 0 1.341 1.341 0 1 0-85.824 0Z" p-id="2373"></path></svg>