<?xml version="1.0" standalone="no"?><!DOCTYPE svg PUBLIC "-//W3C//DTD SVG 1.1//EN" "http://www.w3.org/Graphics/SVG/1.1/DTD/svg11.dtd"><svg t="1577779159697" class="icon" viewBox="0 0 1024 1024" version="1.1" xmlns="http://www.w3.org/2000/svg" p-id="2244" xmlns:xlink="http://www.w3.org/1999/xlink" width="200" height="200"><defs><style type="text/css"></style></defs><path d="M490.650109 518.032879m-366.091018 0a366.091018 366.091018 0 1 0 732.182036 0 366.091018 366.091018 0 1 0-732.182036 0Z" fill="#E9EAEB" p-id="2245"></path><path d="M692.878007 440.725323l-25.576518-18.929514a85.327312 85.327312 0 1 0-137.275101-101.150074l-25.721019-18.857264A117.189586 117.189586 0 1 1 692.878007 440.725323zM306.484724 668.81874a117.478586 117.478586 0 0 1-93.202568-188.428138 116.033585 116.033585 0 0 1 77.379807-45.228533l4.262753 31.573273a85.327312 85.327312 0 0 0-72.828053 96.16482A85.544063 85.544063 0 0 0 317.900233 636.161716l4.262753 31.573273a116.539335 116.539335 0 0 1-15.678262 1.083751zM580.962676 803.565089a117.045086 117.045086 0 0 1-101.511325-58.305793l27.52727-15.967262A85.688563 85.688563 0 0 0 663.616736 708.050519a84.243562 84.243562 0 0 0-8.453256-64.591548l27.59952-15.606011a117.117336 117.117336 0 0 1-43.350032 159.961617 117.117336 117.117336 0 0 1-58.450292 15.750512z" fill="#BCC0C4" p-id="2246"></path><path d="M300.34347 199.626896m-120.729838 0a120.729838 120.729838 0 1 0 241.459676 0 120.729838 120.729838 0 1 0-241.459676 0Z" fill="#FFFFFF" p-id="2247"></path><path d="M300.34347 336.251746a136.62485 136.62485 0 1 1 136.62485-136.62485 136.76935 136.76935 0 0 1-136.62485 136.62485z m0-241.459677a104.834827 104.834827 0 1 0 104.762577 104.834827 104.907077 104.907077 0 0 0-104.762577-104.834827z" fill="#2A5082" p-id="2248"></path><path d="M314.57673 837.522613m-120.729838 0a120.729838 120.729838 0 1 0 241.459677 0 120.729838 120.729838 0 1 0-241.459677 0Z" fill="#FFFFFF" p-id="2249"></path><path d="M314.57673 974.147463a136.62485 136.62485 0 1 1 136.62485-136.62485 136.76935 136.76935 0 0 1-136.62485 136.62485z m0-241.459676A104.834827 104.834827 0 1 0 419.050307 837.522613a104.907077 104.907077 0 0 0-104.473577-104.762576z" fill="#2A5082" p-id="2250"></path><path d="M873.93664 534.216891m-120.729838 0a120.729838 120.729838 0 1 0 241.459677 0 120.729838 120.729838 0 1 0-241.459677 0Z" fill="#FFFFFF" p-id="2251"></path><path d="M874.22564 670.841741a136.62485 136.62485 0 1 1 136.62485-136.62485A136.76935 136.76935 0 0 1 874.22564 670.841741z m0-241.459677a104.834827 104.834827 0 1 0 104.834827 104.834827A104.907077 104.907077 0 0 0 874.22564 429.382064z" fill="#2A5082" p-id="2252"></path><path d="M812.524095 239.870176a74.417555 74.417555 0 1 1 74.417555-74.417555 74.489805 74.489805 0 0 1-74.417555 74.417555z m0-117.045086a42.627531 42.627531 0 1 0 42.627531 42.627531 42.627531 42.627531 0 0 0-42.627531-42.627531zM44.939533 295.213716h31.862273v95.51457H44.939533z" fill="#BCC0C4" p-id="2253"></path><path d="M13.14951 327.00374h95.51457v31.862273H13.14951zM299.620969 788.609328h31.862274v95.51457h-31.862274z" fill="#BCC0C4" p-id="2254"></path><path d="M267.758696 820.399351h95.51457v31.862273H267.758696z" fill="#BCC0C4" p-id="2255"></path><path d="M494.479362 533.566641a15.895012 15.895012 0 0 1-13.65526-7.730756L332.350243 278.234954a15.895012 15.895012 0 1 1 27.31052-16.400762l148.473859 247.600931a15.895012 15.895012 0 0 1-13.65526 24.131518z" fill="#2A5082" p-id="2256"></path><path d="M395.063289 706.966768a15.895012 15.895012 0 0 1-13.79976-23.842518l99.343823-173.400127a15.895012 15.895012 0 1 1 27.59952 15.822762l-99.343823 173.400127a15.895012 15.895012 0 0 1-13.79976 8.019756z" fill="#2A5082" p-id="2257"></path><path d="M794.750582 545.343399h-0.65025l-300.27122-11.849008a15.895012 15.895012 0 1 1 1.228251-31.790024l300.27122 11.849009a15.895012 15.895012 0 0 1-0.578001 31.790023z" fill="#2A5082" p-id="2258"></path><path d="M491.87836 519.18888m-148.329358 0a148.329359 148.329359 0 1 0 296.658717 0 148.329359 148.329359 0 1 0-296.658717 0Z" fill="#A3D4FF" p-id="2259"></path><path d="M491.87836 683.413251a164.22437 164.22437 0 1 1 164.224371-164.224371 164.44112 164.44112 0 0 1-164.224371 164.224371z m0-296.658718a132.434347 132.434347 0 1 0 132.434347 132.434347 132.578847 132.578847 0 0 0-132.434347-132.434347z" fill="#2A5082" p-id="2260"></path><path d="M262.773442 157.288365m-17.918013 0a17.918013 17.918013 0 1 0 35.836027 0 17.918013 17.918013 0 1 0-35.836027 0Z" fill="#2A5082" p-id="2261"></path><path d="M832.46511 483.930854m-17.918013 0a17.918013 17.918013 0 1 0 35.836026 0 17.918013 17.918013 0 1 0-35.836026 0Z" fill="#2A5082" p-id="2262"></path><path d="M432.199817 453.441332m-17.918014 0a17.918013 17.918013 0 1 0 35.836027 0 17.918013 17.918013 0 1 0-35.836027 0Z" fill="#2A5082" p-id="2263"></path></svg>