<svg t="1574316993016" class="icon" viewBox="0 0 1024 1024" version="1.1" xmlns="http://www.w3.org/2000/svg" p-id="10576" width="200" height="200"><path d="M370.090667 549.632v50.176h114.688v-50.176H370.090667z m114.688 106.922667H370.090667v31.061333H309.162667V386.56h175.616V337.578667h62.122666V386.56h177.408v299.264h-60.928v-29.269333h-116.48v117.674666h-62.122666v-117.674666z m62.122666-56.746667h116.48v-50.176h-116.48v50.176z m116.48-104.533333v-51.370667h-116.48v51.370667h116.48z m-178.602666-51.370667H370.090667v51.370667h114.688v-51.370667zM769.706667 258.133333v115.882667h-60.928V314.88H316.928v62.122667H256V258.133333h221.610667a449.28 449.28 0 0 0-15.530667-34.048L528.384 213.333333c4.778667 13.141333 9.557333 28.074667 14.336 44.8h226.986667z" p-id="10577" fill="#1afa29"></path></svg>