<?xml version="1.0" standalone="no"?><!DOCTYPE svg PUBLIC "-//W3C//DTD SVG 1.1//EN" "http://www.w3.org/Graphics/SVG/1.1/DTD/svg11.dtd"><svg t="1572423006471" class="icon" viewBox="0 0 1024 1024" version="1.1" xmlns="http://www.w3.org/2000/svg" p-id="3593" xmlns:xlink="http://www.w3.org/1999/xlink" width="200" height="200"><defs><style type="text/css"></style></defs><path d="M512 20.48c-225.28 0-409.6 73.728-409.6 178.176V825.344c0 102.4 184.32 178.176 409.6 178.176s409.6-73.728 409.6-178.176V198.656c0-104.448-184.32-178.176-409.6-178.176z m0 40.96c204.8 0 368.64 65.536 368.64 137.216 0 69.632-163.84 137.216-368.64 137.216s-368.64-65.536-368.64-137.216 163.84-137.216 368.64-137.216z m368.64 763.904c0 69.632-163.84 137.216-368.64 137.216s-368.64-65.536-368.64-137.216v-131.072c65.536 59.392 206.848 98.304 368.64 98.304s303.104-38.912 368.64-98.304v131.072z m-368.64-71.68c-204.8 0-368.64-65.536-368.64-137.216v-131.072c65.536 59.392 206.848 98.304 368.64 98.304s303.104-38.912 368.64-98.304v131.072c0 69.632-163.84 137.216-368.64 137.216z m0-208.896c-204.8 0-368.64-65.536-368.64-137.216V276.48c65.536 59.392 206.848 98.304 368.64 98.304s303.104-38.912 368.64-98.304v131.072c0 69.632-163.84 137.216-368.64 137.216z" p-id="3594"></path><path d="M796.672 405.504m-24.576 0a24.576 24.576 0 1 0 49.152 0 24.576 24.576 0 1 0-49.152 0Z" p-id="3595"></path><path d="M796.672 612.352m-24.576 0a24.576 24.576 0 1 0 49.152 0 24.576 24.576 0 1 0-49.152 0Z" p-id="3596"></path><path d="M796.672 821.248m-24.576 0a24.576 24.576 0 1 0 49.152 0 24.576 24.576 0 1 0-49.152 0Z" p-id="3597"></path></svg>