<svg t="1574316881440" class="icon" viewBox="0 0 1024 1024" version="1.1" xmlns="http://www.w3.org/2000/svg" p-id="8585" width="200" height="200"><path d="M726.8 959.7H297.2c-28.6 0-52-22.4-53.6-50.6L124.1 240.3v-2.6c0-29.6 24.1-53.7 53.7-53.7h668.3c29.6 0 53.7 24.1 53.7 53.7l-0.5 5.2-119 666.2c-1.5 28.2-24.9 50.6-53.5 50.6zM302.6 900h418.9l117.2-656.4H185.3L302.6 900z" p-id="8586" fill="#13227a"></path><path d="M957.5 243.4h-891c-1.1 0-2-0.9-2-2v-55.7c0-1.1 0.9-2 2-2h891.1c1.1 0 2 0.9 2 2v55.7c-0.1 1.1-1 2-2.1 2z" p-id="8587" fill="#13227a"></path><path d="M705.9 243.3H318.1c-32.9 0-59.7-26.8-59.7-59.7V124c0-32.9 26.8-59.7 59.7-59.7H706c32.9 0 59.7 26.8 59.7 59.7v59.7c-0.1 32.9-26.9 59.6-59.8 59.6zM318.1 124v59.7H706V124H318.1zM446.2 803h-55.7c-1.1 0-2-0.9-2-2V357.5c0-1.1 0.9-2 2-2h55.7c1.1 0 2 0.9 2 2V801c0 1.1-0.9 2-2 2zM625.2 803h-55.7c-1.1 0-2-0.9-2-2V357.5c0-1.1 0.9-2 2-2h55.7c1.1 0 2 0.9 2 2V801c0 1.1-0.9 2-2 2z" p-id="8588" fill="#13227a"></path></svg>