<?xml version="1.0" standalone="no"?><!DOCTYPE svg PUBLIC "-//W3C//DTD SVG 1.1//EN" "http://www.w3.org/Graphics/SVG/1.1/DTD/svg11.dtd"><svg t="1571714912751" class="icon" viewBox="0 0 1024 1024" version="1.1" xmlns="http://www.w3.org/2000/svg" p-id="1147" xmlns:xlink="http://www.w3.org/1999/xlink" width="200" height="200"><defs><style type="text/css"></style></defs><path d="M861.5 166.5H220.6c-29.5 0-53.4 23.9-53.4 53.4v427.2c0 29.5 23.9 53.4 53.4 53.4h267v80.1H354.1c-14.7 0-26.7 12-26.7 26.7V834h427.2v-26.7c0-14.7-12-26.7-26.7-26.7H594.5v-80.1h267c29.5 0 53.4-23.9 53.4-53.4V219.9c0-29.5-23.9-53.4-53.4-53.4zM567.7 647.1c-0.6 14.7-13 26.2-27.8 25.6-13.9-0.6-25.1-11.7-25.6-25.6-0.6-14.7 10.9-27.2 25.7-27.7 14.7-0.6 27.2 10.9 27.7 25.7 0.1 0.6 0.1 1.3 0 2z m293.8-53.4H220.6V219.9h640.8v373.8z" fill="#2633D2" p-id="1148"></path><path d="M339.7 521c1.8 0 3.6-0.7 5-2.1l180-180c2.8-2.8 2.8-7.3 0-10-2.8-2.8-7.3-2.8-10 0l-180 180c-2.8 2.8-2.8 7.3 0 10 1.4 1.4 3.2 2.1 5 2.1zM569 493.5c1.8 0 3.6-0.7 5-2.1l152.5-152.5c2.8-2.8 2.8-7.3 0-10-2.8-2.8-7.3-2.8-10 0L564 481.4c-2.8 2.8-2.8 7.3 0 10 1.4 1.4 3.2 2.1 5 2.1z" fill="#2633D2" p-id="1149"></path></svg>