<?xml version="1.0" standalone="no"?><!DOCTYPE svg PUBLIC "-//W3C//DTD SVG 1.1//EN" "http://www.w3.org/Graphics/SVG/1.1/DTD/svg11.dtd"><svg t="1572674518349" class="icon" viewBox="0 0 1024 1024" version="1.1" xmlns="http://www.w3.org/2000/svg" p-id="2036" xmlns:xlink="http://www.w3.org/1999/xlink" width="200" height="200"><defs><style type="text/css"></style></defs><path d="M767.999878 768.000122q0-14.847993-10.825138-25.746273t-25.746273-10.825138-25.746273 10.825138-10.825138 25.746273 10.825138 25.746273 25.746273 10.825138 25.746273-10.825138 10.825138-25.746273zM914.285523 768.000122q0-14.847993-10.825138-25.746273t-25.746273-10.825138-25.746273 10.825138-10.825138 25.746273 10.825138 25.746273 25.746273 10.825138 25.746273-10.825138 10.825138-25.746273zM987.428345 640.000183l0 182.857056q0 22.820561-16.018278 38.838839t-38.838839 16.018278l-841.142457 0q-22.820561 0-38.838839-16.018278t-16.018278-38.838839l0-182.857056q0-22.820561 16.018278-38.838839t38.838839-16.018278l265.727873 0 77.165678 77.677677q33.133699 32.036556 77.677677 32.036556t77.677677-32.036556l77.677677-77.677677 265.142731 0q22.820561 0 38.838839 16.018278t16.018278 38.838839zM801.718719 314.880338q9.727995 23.405703-7.972568 40.009124l-255.999878 255.999878q-10.313138 10.825138-25.746273 10.825138t-25.746273-10.825138l-255.999878-255.999878q-17.700563-16.603421-7.972568-40.009124 9.727995-22.308561 33.718841-22.308561l146.285645 0 0-255.999878q0-14.847993 10.825138-25.746273t25.746273-10.825138l146.285645 0q14.847993 0 25.746273 10.825138t10.825138 25.746273l0 255.999878 146.285645 0q23.990846 0 33.718841 22.308561z" p-id="2037"></path></svg>