<?xml version="1.0" standalone="no"?><!DOCTYPE svg PUBLIC "-//W3C//DTD SVG 1.1//EN" "http://www.w3.org/Graphics/SVG/1.1/DTD/svg11.dtd"><svg t="1571724045861" class="icon" viewBox="0 0 1024 1024" version="1.1" xmlns="http://www.w3.org/2000/svg" p-id="18486" xmlns:xlink="http://www.w3.org/1999/xlink" width="200" height="200"><defs><style type="text/css"></style></defs><path d="M824.716375 547.253657c0 156.358188 149.855441 208.453229 149.855441 208.453228 0 6.502747-26.084053 71.676347-78.179094 143.352694-45.592294 65.1736-97.7604 123.771388-169.363682 123.771388-78.179094 0-97.7604-39.089547-182.44224-39.089547s-110.765894 39.089547-182.442241 39.089547c-71.676347 0-130.274135-65.1736-175.939493-130.274135C88.444666 762.282697 16.841384 534.248163 114.528719 371.314163c52.095041-78.179094 136.849946-130.274135 234.537282-130.274134 71.676347 0 143.352694 45.592294 182.44224 45.592294 45.592294 0 130.274135-52.095041 215.02904-45.592294 39.089547 0 136.849946 13.005494 201.950482 104.263146-13.005494 6.502747-130.274135 71.676347-123.771388 201.950482zM512 234.537281c-6.502747-58.670853 26.084053-117.268641 65.1736-156.358187 39.089547-45.592294 110.765894-78.179094 162.860934-78.179094 6.502747 58.670853-19.581306 123.771388-58.670852 162.860935-39.089547 45.592294-104.263147 78.179094-169.363682 71.676346z" p-id="18487"></path></svg>