<?xml version="1.0" standalone="no"?><!DOCTYPE svg PUBLIC "-//W3C//DTD SVG 1.1//EN" "http://www.w3.org/Graphics/SVG/1.1/DTD/svg11.dtd"><svg t="1571724193627" class="icon" viewBox="0 0 1024 1024" version="1.1" xmlns="http://www.w3.org/2000/svg" p-id="26107" xmlns:xlink="http://www.w3.org/1999/xlink" width="16" height="16"><defs><style type="text/css"></style></defs><path d="M247.306 696.702c5.208-15.626 21.72-34.244 38.42-31.738 16.706 2.506 45.102 33.412 76.006 89.368 30.896 55.962 57.63 82.7 62.636 101.066 5.012 18.376-3.338 47.606-19.206 57.63-15.87 10.016-38.42 17.534-86.034 0-47.612-17.542-137.812-32.566-148.67-41.762-10.854-9.188-15.868-18.376-15.03-25.892 0.838-7.518 11.688-12.526 11.688-26.722 0-14.2-14.202-54.296-6.676-67.66 7.522-13.364 24.22-17.53 50.114-18.368 25.89-0.842 28.4-10.862 36.752-35.922z m410.106 231.372s-30.076-5.028-32.584-33.416c-2.5-28.394 10.024-62.646 10.024-83.528 0-20.876-6.678-116.098 1.672-124.444 8.344-8.356 31.732-10.028 31.732-10.028s-0.328 67.658 36.176 65.15c36.496-2.51 69.904-9.18 89.118-55.958 0 0 15.868 5.844 15.03 34.252-0.838 28.386 15.042 44.256 27.562 50.1 12.534 5.844 52.622 33.416 20.044 55.128-32.566 21.718-101.062 67.66-117.762 82.692-16.7 15.024-48.446 31.742-81.012 20.052z m-40.936-129.472s7.514 24.224 0 51.79c-7.516 27.562-5.84 45.938-5.84 45.938s-35.848-6.574-79.766-6.686c-38.754-0.094-73.09-1.672-88.958 6.686 0 0 5.014-23.39 0-48.866 0.002-0.002 122.788 18.8 174.564-48.862z" fill="#008CDB" p-id="26108"></path><path d="M588.078 355.092s25.052 15.036 31.746 54.292c6.678 39.258 45.938 110.25 50.942 147 5.004 36.754 6.684 161.198 25.052 168.716 18.38 7.526 87.542 23.366 101.896-101.062 7.522-65.15-33.632-147.234-75.162-188.758-32.756-32.772-48.442-40.934-63.478-123.622-15.036-82.678-14.304-133.248-34.574-168.716C611.128 119.558 587.24 92 514.068 92c-55.502 0-91.366 20.044-103.062 45.104-11.682 25.052-22.542 76.834-17.538 138.644 5.018 61.81 5.018 101.906 5.018 101.906s-46.772 57.626-71.006 103.556c-24.224 45.942-33.402 81.854-42.59 99.398-9.188 17.546-27.562 42.594-23.384 72.666 0 0 26.724-33.416 49.276-1.672 22.558 31.742 88.542 142.54 88.542 142.54s17.934 3.624 26.496-8.904c8.582-12.526-74.954-96.878-74.954-96.878s-32.574-22.562-21.71-73.5c10.86-50.958 60.138-171.62 60.138-171.62l25.056-42.206V358.44s-33.412-35.916 4.168-62.646c0 0-6.676-19.208-6.676-41.758 0-22.542 8.35-43.43 25.058-43.43s36.468 23.662 36.468 54.566l29.23-0.282c0-32.85 16.15-58.464 42.05-59.3 25.886-0.832 45.1 29.236 45.1 51.792 0 22.546-3.35 32.578-3.35 32.578s19.212 12.526 19.212 29.224c0.006 16.702-17.532 35.908-17.532 35.908z" fill="#008CDB" p-id="26109"></path><path d="M487.852 273.25c21.722 0 90.702 25.386 100.226 35.074 9.27 9.416 8.35 19.21-5.842 30.9-14.208 11.694-58.89 50.946-94.384 50.946-36.33 0-67.658-41.758-67.658-41.758s38.422 20.886 55.124 20.886c27.284 0 82.686-17.542 96.892-45.106 0 0-65.984 34.248-95.22 33.412-29.234-0.836-47.61-14.2-56.796-20.882-9.188-6.68-13.354-18.378-3.336-26.726 10.028-8.358 40.086-36.746 70.994-36.746z m-53.878 11.244s19.212-12.092 24.64-14.174c0 0-1.27-20.562-12.318-26.304-8.566-4.458-22.476-0.234-23.038 16.976-0.49 15.11 10.716 23.502 10.716 23.502z m93.976-13.754s20.458 7.47 32.566 13.752c0 0 13.96-21.984 7.102-33.804-9.054-15.586-24.788-10.886-31.04-4.45-6.268 6.44-8.628 24.502-8.628 24.502z" fill="#008CDB" p-id="26110"></path></svg>