<?xml version="1.0" standalone="no"?><!DOCTYPE svg PUBLIC "-//W3C//DTD SVG 1.1//EN" "http://www.w3.org/Graphics/SVG/1.1/DTD/svg11.dtd"><svg t="1571725165335" class="icon" viewBox="0 0 1024 1024" version="1.1" xmlns="http://www.w3.org/2000/svg" p-id="28642" width="200" height="200" xmlns:xlink="http://www.w3.org/1999/xlink"><defs><style type="text/css"></style></defs><path d="M185.952 688l23.872-33.824c85.536 43.232 186.816 67.808 333.184 62.272 0.992-42.304 5.696-82.72 14.496-118.848H396.736c3.776-172.288 67.168-325.024 138.592-441.28H51.264l0.192 740.32h512.64a658.112 658.112 0 0 1-20.832-138.048c-132.8 5.664-269.856-18.304-357.312-70.592z m86.752-422.016h46.848V375.52h-46.848V265.984z" fill="#4F8FCC" p-id="28643"></path><path d="M959.04 156.352H584.8c-65.472 100.576-129.984 236-144.32 398.976h169.44c-13.792 50.304-24.448 102.176-24.96 157.952 95.072-11.68 145.408-23.872 215.904-59.456l23.84 33.824c-61.312 36.672-148.224 59.2-239.744 67.584 1.408 46.944 8.448 93.984 22.08 141.472h352V156.352zM707.808 375.456h-46.88V265.92h46.88v109.536z" fill="#BABEE0" p-id="28644"></path><path d="M319.584 375.52h-46.88V265.984h46.848V375.52zM209.792 654.176L185.952 688c87.456 52.288 224.544 76.256 357.312 70.624a618.4 618.4 0 0 1-0.256-42.144c-146.368 5.536-247.68-19.072-333.216-62.304zM707.808 265.92v109.536h-46.88V265.92h46.88zM584.96 755.232c91.52-8.416 178.432-30.944 239.744-67.584l-23.84-33.824C730.368 689.408 680.032 701.6 584.96 713.28c0.544-55.744 11.2-107.616 24.96-157.952H440.48c14.336-163.008 78.848-298.432 144.32-398.976a1182.144 1182.144 0 0 1 73.76-101.024l-31.616-26.4a1066.656 1066.656 0 0 0-91.68 127.424C463.84 272.576 400.48 425.344 396.672 597.632H557.44c-8.8 36.128-13.504 76.544-14.496 118.848-0.32 13.92-0.352 27.872 0.256 42.144 1.92 45.056 8.704 91.68 20.832 138.048a604.48 604.48 0 0 0 46.624 124.256l38.016-18.304a602.912 602.912 0 0 1-41.632-105.952 571.936 571.936 0 0 1-22.08-141.44z" fill="#224477" p-id="28645"></path></svg>