<svg t="1574995110428" class="icon" viewBox="0 0 1024 1024" version="1.1" xmlns="http://www.w3.org/2000/svg" p-id="2740" width="200" height="200"><path d="M825.5 939.9h-635c-6.6 0-12-5.4-12-12V166.4c0-6.6 5.4-12 12-12h635c6.6 0 12 5.4 12 12v761.5c0 6.6-5.4 12-12 12z" fill="#54D3CC" p-id="2741"></path><path d="M825.5 954.9h-635c-14.9 0-27-12.1-27-27V166.4c0-14.9 12.1-27 27-27h635c14.9 0 27 12.1 27 27v761.5c0 14.9-12.2 27-27 27z m-632.1-30h629V169.4h-629v755.5z" fill="#2A4964" p-id="2742"></path><path d="M753.3 228H262.6l10-87.2h470.7z" fill="#DDF0F0" p-id="2743"></path><path d="M770.1 243H245.8l13.4-117.2h497.5L770.1 243z m-490.7-30h457.1l-6.6-57.2H286l-6.6 57.2zM746.3 596.1H269.6c-6.6 0-12-5.4-12-12v-6c0-6.6 5.4-12 12-12h476.7c6.6 0 12 5.4 12 12v6c0 6.6-5.4 12-12 12zM746.2 482.4H477.5c-6.6 0-12-5.4-12-12v-6c0-6.6 5.4-12 12-12h268.7c6.6 0 12 5.4 12 12v6c0 6.6-5.4 12-12 12zM747.1 353.8H478.4c-6.6 0-12-5.4-12-12v-6c0-6.6 5.4-12 12-12h268.7c6.6 0 12 5.4 12 12v6c0 6.6-5.4 12-12 12zM746.3 720.1H269.6c-6.6 0-12-5.4-12-12v-6c0-6.6 5.4-12 12-12h476.7c6.6 0 12 5.4 12 12v6c0 6.6-5.4 12-12 12zM746.3 845.2H269.6c-6.6 0-12-5.4-12-12v-6c0-6.6 5.4-12 12-12h476.7c6.6 0 12 5.4 12 12v6c0 6.6-5.4 12-12 12z" fill="#294966" p-id="2744"></path><path d="M434.4 376.9h-53.2v-53.1H328v53.1h-53.2v53.2H328v53.2h53.2v-53.2h53.2z" fill="#F25168" p-id="2745"></path><path d="M391.2 493.3H318v-53.2h-53.2v-73.2H318v-53.2h73.2v53.2h53.2v73.2h-53.2v53.2z m-53.2-20h33.2v-53.2h53.2v-33.2h-53.2v-53.2H338v53.2h-53.2v33.2H338v53.2z" fill="#2A4964" p-id="2746"></path><path d="M788.9 307.9v530.7" fill="#F25168" p-id="2747"></path><path d="M776.9 307.9V773c0 21.5-0.7 43.1 0 64.6v0.9c0 15.4 24 15.5 24 0v-53-126.3-153.7-132.1c0-21.5 0.7-43.1 0-64.6v-0.9c0-15.4-24-15.5-24 0z" fill="#FFFFFF" p-id="2748"></path><path d="M567.9 139.8h-120l10-60h100z" fill="#DDF0F0" p-id="2749"></path><path d="M585.7 154.8H430.2l15-90h125.4l15.1 90z m-120-30h84.6l-5-30h-74.6l-5 30z" fill="#294966" p-id="2750"></path></svg>