<?xml version="1.0" standalone="no"?><!DOCTYPE svg PUBLIC "-//W3C//DTD SVG 1.1//EN" "http://www.w3.org/Graphics/SVG/1.1/DTD/svg11.dtd"><svg t="1571715158995" class="icon" viewBox="0 0 1024 1024" version="1.1" xmlns="http://www.w3.org/2000/svg" p-id="4692" width="200" height="200" xmlns:xlink="http://www.w3.org/1999/xlink"><defs><style type="text/css"></style></defs><path d="M426.4 106.2m-8 0a8 8 0 1 0 16 0 8 8 0 1 0-16 0Z" fill="#5C47D6" p-id="4693"></path><path d="M661.7 64.7h-60c-3 0-5.5-2.5-5.5-5.5s2.5-5.5 5.5-5.5h60c3 0 5.5 2.5 5.5 5.5s-2.5 5.5-5.5 5.5z" fill="#32A7FC" p-id="4694"></path><path d="M699 970.3H324.1c-33.1 0-60-26.9-60-60V118.7c0-33.1 26.9-60 60-60h374.8c33.1 0 60 26.9 60 60v791.6c0.1 33.1-26.8 60-59.9 60z" fill="#99D3FF" p-id="4695"></path><path d="M699.9 68.7c27.6 0 50 22.4 50 50v767.9c0 27.6-22.4 50-50 50H325.1c-27.6 0-50-22.4-50-50V118.7c0-27.6 22.4-50 50-50h374.8m0-10H325.1c-33.1 0-60 26.9-60 60v767.9c0 33.1 26.9 60 60 60h374.8c33.1 0 60-26.9 60-60V118.7c0-33.1-26.8-60-60-60z" fill="#4DB2FF" p-id="4696"></path><path d="M702.8 947H322.2c-31.5 0-57.1-26.9-57.1-60v23.3c0 33.1 25.6 60 57.1 60h380.6c31.5 0 57.1-26.9 57.1-60V887c0 33.2-25.5 60-57.1 60z" fill="#4DB2FF" p-id="4697"></path><path d="M721 842.2H302c-5.5 0-10-4.5-10-10V176.7c0-5.5 4.5-10 10-10h419c5.5 0 10 4.5 10 10v655.5c0 5.5-4.4 10-10 10z" fill="#161235" p-id="4698"></path><path d="M749.9 137.5h10v13.3h-10zM264.1 137.5h11.5v13.3h-11.5z" fill="#32A7FC" p-id="4699"></path><path d="M749.9 873.7h10V887h-10zM264.1 873.7h11.5V887h-11.5z" fill="#32A7FC" p-id="4700"></path><path d="M510.9 884.3m-30.1 0a30.1 30.1 0 1 0 60.2 0 30.1 30.1 0 1 0-60.2 0Z" fill="#0748F2" p-id="4701"></path><path d="M561.5 134.2h-100c-4.4 0-8-3.6-8-8s3.6-8 8-8h100c4.4 0 8 3.6 8 8s-3.6 8-8 8z" fill="#5C47D6" p-id="4702"></path><path d="M311.5 709.5l1.6-142.6L570 314.5h142.5z" fill="#161235" p-id="4703"></path><path d="M732.1 342L291.9 754v-72l440.2-412z" fill="#161235" p-id="4704"></path></svg>