<?xml version="1.0" standalone="no"?><!DOCTYPE svg PUBLIC "-//W3C//DTD SVG 1.1//EN" "http://www.w3.org/Graphics/SVG/1.1/DTD/svg11.dtd"><svg t="1572423710954" class="icon" viewBox="0 0 1024 1024" version="1.1" xmlns="http://www.w3.org/2000/svg" p-id="4552" xmlns:xlink="http://www.w3.org/1999/xlink" width="200" height="200"><defs><style type="text/css"></style></defs><path d="M574.72 963.157333l-371.797333-2.048a34.133333 34.133333 0 0 1-33.621334-38.741333l34.133334-251.904C142.506667 580.266667 111.530667 494.933333 111.530667 415.317333v-29.013333c0-179.2 162.986667-325.376 363.434666-325.461333A393.472 393.472 0 0 1 730.453333 153.6a272.384 272.384 0 0 1 93.866667 123.818667 301.141333 301.141333 0 0 1 21.248 102.4 247.466667 247.466667 0 0 1-4.608 42.069333c-3.242667 19.029333-5.973333 35.498667 0 47.36l0.597333 1.28c4.608 10.752 18.432 23.978667 30.549334 35.669333 5.376 5.205333 11.008 10.496 16.128 15.957334 15.957333 11.946667 29.44 31.829333 23.210666 54.869333-7.594667 28.245333-36.864 37.802667-68.266666 41.472l-6.570667 16.128c-11.434667 28.330667-18.773333 45.994667-24.917333 57.6 13.653333 83.456 4.352 133.802667-27.648 149.76a34.816 34.816 0 0 1-4.608 1.877333 88.405333 88.405333 0 0 1-30.890667 4.778667c-27.306667 1.109333-64.512 0-100.522667-0.512L622.933333 847.616l-14.506666 86.613333a34.133333 34.133333 0 0 1-33.706667 28.928z m-332.8-70.058666l303.445333 1.706666 13.568-87.466666a34.133333 34.133333 0 0 1 34.133334-28.928c15.701333 0 35.157333 0.426667 55.808 0.853333 34.133333 0.768 72.192 1.621333 97.365333 0.512h1.194667a341.333333 341.333333 0 0 0-5.888-89.344 34.133333 34.133333 0 0 1 8.533333-29.269333c4.949333-8.533333 16.384-37.034667 22.698667-52.650667 17.066667-42.154667 22.869333-56.746667 46.421333-57.258667h1.706667a175.701333 175.701333 0 0 1-42.069334-53.930666c-14.506667-31.061333-9.216-62.293333-4.949333-87.381334a194.901333 194.901333 0 0 0 3.669333-30.72 234.666667 234.666667 0 0 0-17.066666-77.312l-0.597334-1.621333a201.898667 201.898667 0 0 0-71.68-93.269333l-1.450666-1.194667a325.12 325.12 0 0 0-211.797334-76.8c-162.730667 0-295.168 115.456-295.168 257.194667v29.013333c0 67.157333 30.208 145.664 87.381334 226.986667a34.133333 34.133333 0 0 1 5.888 24.32z m513.194667-236.629334z m64.853333-36.864z m0 0z m0 0z m0 0z m0 0z m0.938667 0z m0 0z m0 0z" fill="" p-id="4553"></path><path d="M605.866667 481.28h-4.778667a34.133333 34.133333 0 0 1 0-68.266667c48.554667 0 48.554667-23.466667 48.554667-31.146666 0-71.850667-30.208-71.850667-52.224-71.850667a41.130667 41.130667 0 0 0-27.050667 10.069333 34.133333 34.133333 0 0 1-56.32-28.16v-2.730666a41.642667 41.642667 0 0 0-46.08-41.728 42.666667 42.666667 0 0 0-32.341333 23.466666 37.461333 37.461333 0 0 0-3.498667 27.733334 34.133333 34.133333 0 0 1-61.610667 26.794666A41.472 41.472 0 0 0 333.994667 307.2a43.776 43.776 0 0 0-39.765334 44.714667 61.269333 61.269333 0 0 0 61.184 61.269333H358.4a34.133333 34.133333 0 1 1 0 68.266667h-3.072a129.621333 129.621333 0 0 1-129.365333-129.621334A110.933333 110.933333 0 0 1 331.093333 238.933333a109.568 109.568 0 0 1 41.472 6.058667q1.194667-2.645333 2.56-5.205333a109.482667 109.482667 0 0 1 197.973334 4.693333 109.568 109.568 0 0 1 24.234666-2.730667c44.970667 0 120.490667 18.176 120.490667 140.117334 0 58.026667-42.666667 96.256-108.458667 99.242666zM477.866667 653.226667a211.029333 211.029333 0 0 1-24.234667-1.450667 12.8 12.8 0 1 1 2.986667-25.6 184.149333 184.149333 0 0 0 21.333333 1.28 175.189333 175.189333 0 0 0 25.514667-1.792 12.8 12.8 0 0 1 3.84 25.6 201.728 201.728 0 0 1-29.44 1.962667z m-88.661334-20.309334A12.8 12.8 0 0 1 384 631.466667a187.733333 187.733333 0 0 1-45.824-30.208 12.8 12.8 0 0 1 17.066667-18.858667 164.181333 164.181333 0 0 0 39.509333 25.6 12.8 12.8 0 0 1-5.546667 24.32z m180.650667-3.669333a12.8 12.8 0 0 1-6.144-24.064 223.658667 223.658667 0 0 0 39.509333-27.818667 12.8 12.8 0 1 1 17.066667 19.285334 248.661333 248.661333 0 0 1-44.117333 30.976 12.714667 12.714667 0 0 1-6.314667 1.621333z" fill="#FF7E00" p-id="4554"></path></svg>