<?xml version="1.0" standalone="no"?><!DOCTYPE svg PUBLIC "-//W3C//DTD SVG 1.1//EN" "http://www.w3.org/Graphics/SVG/1.1/DTD/svg11.dtd"><svg t="1575440725241" class="icon" viewBox="0 0 1024 1024" version="1.1" xmlns="http://www.w3.org/2000/svg" p-id="2176" xmlns:xlink="http://www.w3.org/1999/xlink" width="200" height="200"><defs><style type="text/css"></style></defs><path d="M823.3 180.5H173.1c-18.8 0-36.4 7.5-49.6 21-13 13.4-20.2 31.5-20.2 50.8v535.4c0 19.2 7 36.6 19.6 48.9 12.6 12.2 30.4 18.9 50.2 18.9h650.2c38.5 0 69.8-31.3 69.8-69.8V250.3c0-38.5-31.3-69.8-69.8-69.8z m-671.6 71.8c0-13.1 9.4-23.3 21.3-23.3h650.2c11.8 0 21.3 9.6 21.3 21.3v535.4c0 11.8-9.6 21.3-21.3 21.3H173.1c-9.7 0-21.3-3.4-21.3-19.3V252.3z" fill="#4E30DC" p-id="2177"></path><path d="M798.3 625L682.8 513.7l-0.6-0.6-1.1-0.7c-9.9-6.4-22.8-5.1-31.3 3.2L553 611.5 359.5 409.2l-0.4-0.4c-5.4-5.2-12.7-7.7-20.1-6.8-7.4 0.8-14.1 4.8-18.2 11.1L180.7 625.3c-3.7 5.6-5.1 12.3-3.8 18.9 1.3 6.6 5.1 12.3 10.7 16 11.5 7.7 27.2 4.6 34.9-7l123.1-186.6 189.5 198.2 0.4 0.4c4.7 4.5 10.9 7 17.4 7 6.6 0 12.9-2.6 17.6-7.2l98.5-97.5 98.6 97.2 1 1 1.2 0.8c5.6 3.7 12.4 4.9 18.9 3.5 6.6-1.4 12.2-5.3 15.9-10.9 7.2-11.4 4.4-26.2-6.3-34.1zM583.6 435.7h1.9c25.3-0.9 45.9-21.5 46.9-46.8 0.5-13.4-4.3-26.1-13.6-35.8-9.3-9.6-21.8-15-35.2-15-26.9 0-48.8 21.9-48.8 48.8 0 13.4 5.3 25.9 14.9 35.1 9.2 8.9 21.2 13.7 33.9 13.7z" fill="#FF4E7D" p-id="2178"></path></svg>