<?xml version="1.0" standalone="no"?><!DOCTYPE svg PUBLIC "-//W3C//DTD SVG 1.1//EN" "http://www.w3.org/Graphics/SVG/1.1/DTD/svg11.dtd"><svg t="1573031453197" class="icon" viewBox="0 0 1024 1024" version="1.1" xmlns="http://www.w3.org/2000/svg" p-id="7666" xmlns:xlink="http://www.w3.org/1999/xlink" width="200" height="200"><defs><style type="text/css"></style></defs><path d="M318.755157 246.692181h363.582464c12.793856 0 24.389632-5.396139 31.839232-14.792021 7.392597-9.467563 9.846784-21.992448 6.746112-34.432683l-13.39665-53.283157c-5.597867-22.335147-28.085931-39.826773-51.17679-39.826773h-51.925674c-5.351765 0-12.045312-5.272917-13.346816-10.419883l-13.396992-53.275989c-5.597867-22.342315-28.085931-39.834624-51.17679-39.834624h-51.976874c-23.088469 0-45.527381 17.492651-51.126614 39.834624l-13.395968 53.275989c-1.248597 5.146965-8.043179 10.419883-13.344426 10.419883h-51.970048c-23.090517 0-45.584384 17.491627-51.132416 39.826773l-13.390166 53.283157c-3.151531 12.438869-0.651947 24.963755 6.746454 34.432683 7.399765 9.396224 18.996565 14.792021 31.841962 14.792021z" fill="#FF8A00" p-id="7667"></path><path d="M838.170965 156.109141h-51.97585c-10.745856 0-19.492181 8.698197-19.492182 19.416064l8.33536 40.035328c3.858773 15.501995 0.80384 31.097515-8.406016 42.889558-9.276075 11.703979-23.721301 18.425173-39.6544 18.425173H274.121387c-16.001707 0-30.438741-6.72256-39.655424-18.425173-9.209856-11.791701-12.326229-27.387563-8.405334-42.889558l8.275968-40.035328c0-10.717867-8.692736-19.416064-19.490133-19.416064H162.924544c-25.067861 0-45.456725 20.316843-45.456725 45.308246v776.475989c0 24.962731 20.388523 45.279573 45.456725 45.279573h675.246421c25.042603 0 45.432832-20.316843 45.432832-45.279573V201.417045c-0.002389-24.991061-20.392277-45.307904-45.432832-45.307904z m-155.831637 679.417515H318.755157c-10.747221 0-19.490133-8.698197-19.490133-19.39456 0-10.716501 8.742912-19.410261 19.490133-19.410261h363.582464c10.745856 0 19.494571 8.69376 19.494571 19.410261-0.000341 10.696363-8.746325 19.39456-19.492864 19.39456z m0-103.529813H318.755157c-10.747221 0-19.490133-8.69376-19.490133-19.41504 0-10.698069 8.742912-19.389781 19.490133-19.389782h363.582464c10.745856 0 19.494571 8.696149 19.494571 19.389782-0.000341 10.721621-8.746325 19.41504-19.492864 19.41504z m0-103.531179H318.755157c-10.747221 0-19.490133-8.689323-19.490133-19.408213 0-10.723328 8.742912-19.39456 19.490133-19.39456h363.582464c10.745856 0 19.494571 8.671232 19.494571 19.39456-0.000341 10.718891-8.746325 19.408213-19.492864 19.408213z m0-103.522304H318.755157c-10.747221 0-19.490133-8.698539-19.490133-19.417429 0-10.723669 8.742912-19.393195 19.490133-19.393195h363.582464c10.745856 0 19.494571 8.669525 19.494571 19.393195-0.000341 10.718891-8.746325 19.417429-19.492864 19.417429z m0-103.530837H318.755157c-10.747221 0-19.490133-8.697173-19.490133-19.41504 0-10.723669 8.742912-19.418453 19.490133-19.418454h363.582464c10.745856 0 19.494571 8.698197 19.494571 19.418454-0.000341 10.717867-8.746325 19.41504-19.492864 19.41504z" fill="#FF8A00" p-id="7668"></path></svg>