<?xml version="1.0" standalone="no"?><!DOCTYPE svg PUBLIC "-//W3C//DTD SVG 1.1//EN" "http://www.w3.org/Graphics/SVG/1.1/DTD/svg11.dtd"><svg t="1571721953124" class="icon" viewBox="0 0 1024 1024" version="1.1" xmlns="http://www.w3.org/2000/svg" p-id="8834" width="200" height="200" xmlns:xlink="http://www.w3.org/1999/xlink"><defs><style type="text/css"></style></defs><path d="M844.8 1024l-665.6 0c-42.3424 0-76.8-34.4576-76.8-76.8l0-870.4c0-42.3424 34.4576-76.8 76.8-76.8l665.6 0c42.3424 0 76.8 34.4576 76.8 76.8l0 870.4c0 42.3424-34.4576 76.8-76.8 76.8zM179.2 51.2c-14.1312 0-25.6 11.4688-25.6 25.6l0 870.4c0 14.1312 11.4688 25.6 25.6 25.6l665.6 0c14.1312 0 25.6-11.4688 25.6-25.6l0-870.4c0-14.1312-11.4688-25.6-25.6-25.6l-665.6 0z" fill="#1296db" p-id="8835"></path><path d="M537.6 921.6l-51.2 0c-14.1312 0-25.6-11.4688-25.6-25.6s11.4688-25.6 25.6-25.6l51.2 0c14.1312 0 25.6 11.4688 25.6 25.6s-11.4688 25.6-25.6 25.6z" fill="#1296db" p-id="8836"></path><path d="M793.6 819.2l-563.2 0c-14.1312 0-25.6-11.4688-25.6-25.6l0-665.6c0-14.1312 11.4688-25.6 25.6-25.6l563.2 0c14.1312 0 25.6 11.4688 25.6 25.6l0 665.6c0 14.1312-11.4688 25.6-25.6 25.6zM256 768l512 0 0-614.4-512 0 0 614.4z" fill="#1296db" p-id="8837"></path></svg>