<svg t="1574155213328" class="icon" viewBox="0 0 1024 1024" version="1.1" xmlns="http://www.w3.org/2000/svg" p-id="10061" width="200" height="200"><path d="M335.36 197.12h28.16c23.04 0 43.52-20.48 43.52-43.52V69.12c0-23.04-20.48-43.52-43.52-43.52h-28.16c-23.04 0-43.52 20.48-43.52 43.52V153.6c0 23.04 17.92 43.52 43.52 43.52z m622.08 23.04V120.32c0-20.48-17.92-38.4-38.4-38.4h-102.4-25.6v53.76c0 51.2-40.96 92.16-92.16 92.16h-5.12c-51.2 0-92.16-40.96-92.16-92.16V81.92H435.2v53.76c0 51.2-40.96 92.16-92.16 92.16h-5.12c-51.2 0-92.16-40.96-92.16-92.16V81.92h-25.6-120.32c-20.48 0-38.4 17.92-38.4 38.4v837.12c0 20.48 17.92 38.4 38.4 38.4H921.6c20.48 0 38.4-17.92 38.4-38.4V227.84c0-2.56-2.56-5.12-2.56-7.68z m-56.32 665.6c0 53.76-5.12 56.32-56.32 56.32H194.56c-53.76 0-76.8-5.12-76.8-56.32V312.32h783.36v573.44z m-204.8-688.64h28.16c23.04 0 43.52-20.48 43.52-43.52V69.12c0-25.6-20.48-43.52-43.52-43.52h-28.16c-23.04 0-43.52 20.48-43.52 43.52V153.6c0 23.04 20.48 43.52 43.52 43.52z m-125.44 591.36c2.56-2.56 5.12-7.68 7.68-12.8 0-5.12-2.56-10.24-5.12-12.8l-53.76-56.32c-7.68-7.68-17.92-7.68-25.6 0-7.68 7.68-7.68 17.92 0 25.6l53.76 56.32c5.12 7.68 15.36 7.68 23.04 0z m-273.92-240.64c5.12 0 10.24-2.56 12.8-5.12l104.96-115.2c5.12-7.68 5.12-17.92 0-25.6-5.12-2.56-7.68-5.12-12.8-5.12s-10.24 2.56-12.8 5.12L281.6 519.68c-7.68 7.68-5.12 17.92 0 25.6 5.12 2.56 10.24 2.56 15.36 2.56z m145.92 128h243.2v138.24c0 7.68-2.56 15.36-10.24 20.48-5.12 5.12-12.8 10.24-23.04 10.24h-84.48c-10.24 0-17.92 7.68-17.92 17.92 0 10.24 7.68 17.92 17.92 17.92h84.48c10.24 0 17.92-2.56 25.6-5.12 25.6-10.24 40.96-35.84 40.96-61.44v-138.24h20.48c10.24 0 17.92-7.68 17.92-17.92 0-10.24-7.68-17.92-17.92-17.92h-20.48v-64h20.48c10.24 0 17.92-7.68 17.92-17.92 0-10.24-7.68-17.92-17.92-17.92h-133.12v-71.68h128c10.24 0 17.92-7.68 17.92-17.92 0-10.24-7.68-17.92-17.92-17.92h-128V409.6c0-10.24-7.68-17.92-17.92-17.92-10.24 0-17.92 7.68-17.92 17.92v23.04h-125.44c-10.24 0-17.92 7.68-17.92 17.92 0 10.24 7.68 17.92 17.92 17.92h125.44V537.6h-130.56c-10.24 0-17.92 7.68-17.92 17.92 0 10.24 7.68 17.92 17.92 17.92h243.2v64h-243.2c-10.24 0-17.92 7.68-17.92 17.92 2.56 12.8 10.24 20.48 20.48 20.48z m-87.04-130.56l-71.68 81.92c-7.68 7.68-5.12 17.92 0 25.6 5.12 2.56 7.68 5.12 12.8 5.12s10.24-2.56 12.8-5.12l40.96-46.08v258.56c0 10.24 7.68 17.92 17.92 17.92 10.24 0 17.92-7.68 17.92-17.92v-307.2c2.56-17.92-17.92-25.6-30.72-12.8z" fill="#e03f2a" p-id="10062"></path></svg>