<svg t="1574151820126" class="icon" viewBox="0 0 1024 1024" version="1.1" xmlns="http://www.w3.org/2000/svg" p-id="8317" width="200" height="200"><path d="M97.878 483.853c0-117.062-0.108-160.999-0.108-278.062 0-101.472 56.328-108.082 110.483-108.082h441.933c85.128 0 111.453 28.968 111.453 110.481v55.241c0 43.562-55.419 38.57-55.419 0V208.19c0-40.918-13.309-55.24-56.035-55.24H208.252c-45.746 0-55.241 6.203-55.241 55.24v552.407c0 30.278 16.572 55.241 55.241 55.241 67.004 0 43.482 0.026 110.484 0 33.77 0 36.252 55.241 0 55.241s-63.711 0.44-131.306 0.17c-39.867-0.163-72.883-23.774-84.643-60.322-3.292-10.223-4.694-21.525-4.694-32.34-0.323-116.658-0.215-178.076-0.215-294.734" fill="#707070" p-id="8318"></path><path d="M649.644 926.291c-152.344-0.027-275.666-123.537-275.666-276.122 0-152.586 123.915-276.259 276.529-276.042 152.616 0.215 275.884 124.022 275.722 276.878-0.16 152.236-123.807 275.314-276.585 275.286m0.756-496.868c-121.109-0.271-220.641 98.828-220.91 220.045-0.27 121.541 98.345 220.934 219.561 221.287 121.704 0.324 221.505-98.208 221.775-219.047 0.324-122.594-98.236-221.99-220.426-222.285M594.945 263.061c44.02 0.027 37.978 55.979 0 55.979h-331.45c-41.431 0-39.704-55.979 0-55.979 108.756-0.027 289.155-0.027 331.45 0zM318.736 428.782c44.021 0.028 37.979 55.98 0 55.98h-55.242c-41.431 0-39.704-55.98 0-55.98 108.757-0.027 12.948-0.027 55.242 0z" fill="#707070" p-id="8319"></path><path d="M695.359 650.209l60.603-60.603c12.497-12.497 12.497-32.759 0.001-45.255-12.498-12.498-32.759-12.497-45.255-0.001l-60.604 60.604L589.5 544.35c-12.496-12.496-32.757-12.497-45.255 0.001-12.496 12.496-12.496 32.758 0.001 45.255l60.603 60.603-60.603 60.603c-12.497 12.497-12.497 32.759-0.001 45.255 6.25 6.25 14.438 9.373 22.628 9.373 8.188 0 16.38-3.125 22.627-9.372l60.604-60.604 60.604 60.604c6.248 6.248 14.438 9.372 22.627 9.372s16.379-3.124 22.628-9.373c12.496-12.496 12.496-32.758-0.001-45.255l-60.603-60.603z" fill="#707070" p-id="8320"></path></svg>